# xmcd CD database file
#
# Track frame offsets:
#	182
#	13730
#	26547
#	39780
#	53795
#	66382
#	80892
#	92107
#	102930
#	119320
#	133057
#	151892
#	163067
#	177235
#	195385
#	210425
#	223772
#	235247
#	249630
#	263247
#
# Disc length: 3799 seconds
#
# Revision: 0
# Processed by: cddbd v1.5.1PL0 Copyright (c) Steve Scherf et al.
# Submitted via: CDex 1.50
#
DISCID=170ed514
DTITLE=Sidney Bechet - Les chefs-d'oeuvres de Sidney Bechet
DYEAR=1900
DGENRE=Jazz
TTITLE0=Wild cat blues - 1923
TTITLE1=Sweetie dear - 1932
TTITLE2=Maple leaf rag - 1932
TTITLE3=Shag - 1932
TTITLE4=Blackstick - 1938
TTITLE5=When the sun sets down south (southern sunset) - 1938
TTITLE6=Jungle drums - 1938
TTITLE7=Chant in the night - 1938
TTITLE8=Really the blues - 1938
TTITLE9=Weary blues - 1938
TTITLE10=Summertime - 1939
TTITLE11=Saint Luois blues - 1940
TTITLE12=Indian summer - 1940
TTITLE13=Dear old southland - 1940
TTITLE14=Wild man blues - 1940
TTITLE15=Blues in thirds - 1940
TTITLE16=Strange fruit - 1941
TTITLE17=The mooche - 1941
TTITLE18=Twelfth street rag - 1941
TTITLE19=V-disc blues (buggle call rag-ole miss) - 1943
EXTD=
EXTT0=
EXTT1=
EXTT2=
EXTT3=
EXTT4=
EXTT5=
EXTT6=
EXTT7=
EXTT8=
EXTT9=
EXTT10=
EXTT11=
EXTT12=
EXTT13=
EXTT14=
EXTT15=
EXTT16=
EXTT17=
EXTT18=
EXTT19=
PLAYORDER=
